<svg xmlns="http://www.w3.org/2000/svg" viewBox="-720 -610 1440 620">
<title>Draft Korean granary frontage and open loading bay</title>
<desc>Inactive side-view material study: low tiled storehouse, protected timber siding, raised loading deck and an open cargo bay. No cargo clue, river route, stage, collision or interaction is authored. The open bay and spaces between supports remain transparent.</desc>
<defs>
<linearGradient id="granary-clay" x1="-500" y1="-398" x2="260" y2="-154" gradientUnits="userSpaceOnUse"><stop offset="0" stop-color="#b09f7c"/><stop offset="0.5" stop-color="#938e70"/><stop offset="1" stop-color="#738274"/></linearGradient>
<linearGradient id="granary-tiles" x1="0" y1="-584" x2="0" y2="-375" gradientUnits="userSpaceOnUse"><stop offset="0" stop-color="#6a7c7e"/><stop offset="0.4" stop-color="#4b626a"/><stop offset="1" stop-color="#2d454f"/></linearGradient>
</defs>
<g id="foundation-piers">
<path fill="#536a68" d="M-613-115H-533L-531 0H-625Z M-322-115H-255V0H-329Z M15-115H87L94 0H7Z M355-115H428L438 0H347Z M591-115H652L662 0H584Z"/>
<path fill="#a1a78b" d="M-614-111H-534V-92H-618Z M-323-111H-255V-93H-325Z M14-111H88V-94H12Z M354-111H429L430-93H351Z M590-111H653L655-92H588Z"/>
<path fill="#7b8975" d="M-618-75L-574-81L-568-31L-622-20Z M-322-72L-283-73L-278-16L-326-13Z M18-63L57-71L67-19L12-13Z M357-76L399-73L409-21L352-20Z M599-72L638-75L649-14H591Z"/>
<path fill="#374f51" d="M-533-92H-519L-516-3H-531Z M88-92L103-88L110-2H94Z M429-92L445-88L454-1H438Z"/>
</g>
<g id="storehouse-wall-planes">
<path fill="url(#granary-clay)" d="M-601-403H152V-153H-605Z"/>
<path fill="#647768" d="M125-403H158V-151H126Z"/>
<path fill="#c3af86" d="M-587-389H-362L-378-363L-489-368L-536-347L-587-351Z M-44-389H125V-367L66-361L15-371L-43-353Z"/>
<path fill="#7b7958" d="M-601-242L-533-256L-498-225L-439-237L-376-219L-344-241L-316-218L-257-211L-222-224L-166-194L-103-222L-32-216L15-234L58-223L100-245L143-235V-153H-604Z"/>
<path fill="#594d35" d="M-604-254H-412V-155H-604Z M-168-261H137V-155H-168Z"/>
<path fill="#89754c" d="M-596-249L-551-253V-161H-596Z M-542-252L-498-249V-161H-542Z M-489-247L-445-251V-161H-489Z M-157-255L-102-257V-161H-157Z M-92-256L-39-251V-161H-92Z M-29-254L24-250V-161H-29Z M34-248L80-257V-161H34Z M91-254L127-247V-161H91Z"/>
<path fill="#b4955f" d="M-595-243L-591-244V-166H-595Z M-540-246L-536-244V-166H-540Z M-154-249L-150-250V-166H-154Z M-88-248L-84-247V-166H-88Z M37-243L41-244V-166H37Z"/>
<g id="limewash-shadow-and-plank-side-faces">
<path fill="#65715e" d="M-594-396H140V-375L-24-385L-208-379L-402-388L-594-378Z"/>
<path fill="#ccbd96" d="M-584-343L-502-357L-446-349L-446-340L-533-339L-584-325Z M-86-284L-51-291L17-278L82-287L128-272V-260L53-270L-24-261L-86-270Z"/>
<path fill="#594c34" d="M-553-250H-548V-161H-553Z M-500-247H-495V-161H-500Z M-447-249H-442V-161H-447Z M-104-255H-99V-161H-104Z M-41-251H-36V-161H-41Z M22-248H27V-161H22Z M78-254H83V-161H78Z"/>
<path fill="#9d8858" d="M-590-237H-555V-232H-590Z M-536-225H-503V-220H-536Z M-483-237H-449V-232H-483Z M-152-232H-108V-227H-152Z M-84-236H-45V-231H-84Z M-23-227H17V-222H-23Z M40-233H74V-228H40Z"/>
</g>
</g>
<g id="closed-plank-door-and-high-vent">
<path fill="#3b4c42" d="M-416-374H-179V-150H-416Z"/>
<path fill="#79643e" d="M-408-365H-306V-161H-408Z M-298-365H-188V-161H-298Z"/>
<path fill="#a18a56" d="M-405-362H-397V-165H-405Z M-293-362H-286V-165H-293Z M-406-336H-308V-322H-406Z M-296-336H-190V-322H-296Z M-406-211H-308V-197H-406Z M-296-211H-190V-197H-296Z"/>
<path fill="none" stroke="#544e34" stroke-width="4" d="M-371-356V-215 M-337-356V-215 M-260-356V-215 M-224-356V-215"/>
<path fill="#283d38" d="M-327-287H-315V-261H-327Z M-289-287H-277V-261H-289Z"/>
<path fill="#405750" d="M-105-364H86V-298H-105Z"/>
<path fill="#a19a71" d="M-98-358H79V-352H-98Z M-98-313H79V-307H-98Z M-86-352H-76V-313H-86Z M-47-352H-37V-313H-47Z M-8-352H2V-313H-8Z M32-352H42V-313H32Z M68-352H78V-313H68Z"/>
<path fill="#423d2a" d="M-398-355H-391V-215H-398Z M-307-361H-302V-163H-307Z M-193-356H-188V-165H-193Z M-405-320H-308V-313H-405Z M-296-320H-190V-313H-296Z M-103-361H86V-351H-103Z"/>
<path fill="#c4b482" d="M-406-337H-308V-333H-406Z M-296-337H-190V-333H-296Z M-95-347H-89V-318H-95Z M-74-347H-51V-318H-74Z M-35-347H-12V-318H-35Z M4-347H28V-318H4Z M44-347H64V-318H44Z"/>
</g>
<g id="open-loading-bay-timber">
<path fill="#6e5839" d="M-619-422H-594V-127H-619Z M-427-419H-407V-134H-427Z M-182-419H-162V-134H-182Z M139-419H165V-130H139Z M398-422H423V-130H398Z M614-422H642V-130H614Z"/>
<path fill="#b4965c" d="M-618-409H-610V-140H-618Z M-427-408H-421V-144H-427Z M-182-408H-177V-144H-182Z M139-408H147V-140H139Z M398-408H406V-140H398Z M614-408H622V-140H614Z"/>
<path fill="#745d3b" d="M-629-420H650V-397H-629Z M151-380L165-397L227-337L214-324Z M399-397L413-380L356-327L344-339Z M625-397L638-380L582-329L569-341Z"/>
<path fill="#ad9058" d="M-625-417H646V-410H-625Z M158-384L168-383L218-336L213-331Z M402-385L407-379L354-334L350-339Z"/>
<path fill="#314c47" d="M170-397H394V-379H170Z M425-397H610V-379H425Z"/>
<path fill="#334c43" d="M473-387H481V-256H473Z"/>
<path fill="#8d7a4c" d="M464-267H489V-245H464Z"/>
<path fill="#c1ac70" d="M469-264H484V-250H469Z"/>
<path fill="#443d2c" d="M-600-395H-594V-143H-600Z M-413-395H-407V-143H-413Z M-168-395H-162V-143H-168Z M159-395H165V-142H159Z M417-395H423V-142H417Z M635-395H642V-142H635Z M151-382L165-397L171-391L156-377Z M399-397L413-380L407-373L394-390Z"/>
<path fill="#b19a68" d="M142-183H159V-178H142Z M401-183H417V-178H401Z M618-183H635V-178H618Z"/>
</g>
<g id="long-low-tiled-roof">
<path fill="#1f3743" d="M-699-402Q-670-386-623-411L-505-481L-461-568H469L508-481L634-411Q673-391 705-410L693-383L640-381L594-396H-590L-640-378L-686-380Z"/>
<path fill="url(#granary-tiles)" d="M-692-404Q-662-397-620-417L-503-484L-458-571H466L508-484L635-417Q674-399 698-414L687-395L643-397L595-411H-590L-640-393L-682-392Z"/>
<path fill="#81908b" d="M-487-591L-462-589H467L491-593L486-575L469-578H-464L-484-573Z"/>
<path fill="#49666b" d="M-484-576H487L478-566H-477Z"/>
<path fill="#6c8381" d="M-503-484L-458-571H466L474-555H-447L-482-481Z"/>
<path fill="#314b57" d="M-503-484L-478-482L-576-416L-624-412Z M508-484L481-483L581-416L634-412Z"/>
<path fill="none" stroke="#83958d" stroke-width="4" d="M-681-391Q-656-385-636-396L-590-412H595L641-398Q668-387 690-398"/>
<path fill="none" stroke="#6f8785" stroke-width="3" d="M-416-552L-438-485L-469-419 M-333-552L-350-485L-374-419 M-242-552L-254-485L-271-419 M-144-552L-151-485L-160-419 M-43-552L-46-485L-49-419 M62-552L67-485L73-419 M166-552L177-485L189-419 M266-552L281-485L303-419 M361-552L382-485L412-419 M438-552L463-485L510-419"/>
<path fill="#263e48" d="M-598-410H602V-397H-598Z"/>
<g id="overlapping-ceramic-tile-courses">
<path fill="#213d49" d="M-469 -538Q0 -531 469 -538L475 -532Q0 -525 -475 -532Z M-486 -510Q0 -503 486 -510L492 -504Q0 -497 -492 -504Z M-523 -480Q0 -473 523 -480L529 -474Q0 -467 -529 -474Z M-571 -451Q0 -444 571 -451L577 -445Q0 -438 -577 -445Z"/>
<path fill="#698087" d="M-469 -538Q0 -531 469 -538L470 -536Q0 -529 -470 -536Z M-486 -510Q0 -503 486 -510L487 -508Q0 -501 -487 -508Z M-523 -480Q0 -473 523 -480L524 -478Q0 -471 -524 -478Z M-571 -451Q0 -444 571 -451L572 -449Q0 -442 -572 -449Z"/>
<path fill="#526d75" d="M-385 -552L-447 -419L-440 -419L-379 -552Z M-293 -552L-340 -419L-333 -419L-287 -552Z M-196 -552L-228 -419L-221 -419L-190 -552Z M-97 -552L-113 -419L-106 -419L-91 -552Z M7 -552L8 -419L15 -419L13 -552Z M111 -552L128 -419L135 -419L117 -552Z M215 -552L249 -419L256 -419L221 -552Z M312 -552L361 -419L368 -419L318 -552Z M406 -552L470 -419L477 -419L412 -552Z"/>
<path fill="#2b4045" d="M-580 -399h18v7h-18Z M-544 -399h18v7h-18Z M-508 -399h18v7h-18Z M-472 -399h18v7h-18Z M-436 -399h18v7h-18Z M-400 -399h18v7h-18Z M-364 -399h18v7h-18Z M-328 -399h18v7h-18Z M-292 -399h18v7h-18Z M-256 -399h18v7h-18Z M-220 -399h18v7h-18Z M-184 -399h18v7h-18Z M-148 -399h18v7h-18Z M-112 -399h18v7h-18Z M-76 -399h18v7h-18Z M-40 -399h18v7h-18Z M-4 -399h18v7h-18Z M32 -399h18v7h-18Z M68 -399h18v7h-18Z M104 -399h18v7h-18Z M140 -399h18v7h-18Z M176 -399h18v7h-18Z M212 -399h18v7h-18Z M248 -399h18v7h-18Z M284 -399h18v7h-18Z M320 -399h18v7h-18Z M356 -399h18v7h-18Z M392 -399h18v7h-18Z M428 -399h18v7h-18Z M464 -399h18v7h-18Z M500 -399h18v7h-18Z M536 -399h18v7h-18Z"/>
<path fill="#87928a" d="M-580 -399h18v2h-18Z M-544 -399h18v2h-18Z M-508 -399h18v2h-18Z M-472 -399h18v2h-18Z M-436 -399h18v2h-18Z M-400 -399h18v2h-18Z M-364 -399h18v2h-18Z M-328 -399h18v2h-18Z M-292 -399h18v2h-18Z M-256 -399h18v2h-18Z M-220 -399h18v2h-18Z M-184 -399h18v2h-18Z M-148 -399h18v2h-18Z M-112 -399h18v2h-18Z M-76 -399h18v2h-18Z M-40 -399h18v2h-18Z M-4 -399h18v2h-18Z M32 -399h18v2h-18Z M68 -399h18v2h-18Z M104 -399h18v2h-18Z M140 -399h18v2h-18Z M176 -399h18v2h-18Z M212 -399h18v2h-18Z M248 -399h18v2h-18Z M284 -399h18v2h-18Z M320 -399h18v2h-18Z M356 -399h18v2h-18Z M392 -399h18v2h-18Z M428 -399h18v2h-18Z M464 -399h18v2h-18Z M500 -399h18v2h-18Z M536 -399h18v2h-18Z"/>
</g>
</g>
<g id="raised-loading-deck">
<path fill="#8f794e" d="M-653-152H680L702-124H-680Z"/>
<path fill="#baa173" d="M-653-152H680L686-143H-661Z"/>
<path fill="#584e36" d="M-681-127H702V-104H-681Z"/>
<path fill="#6d6547" d="M-672-122H694V-113H-672Z"/>
<path fill="#2f4946" d="M-669-104H691V-93H-669Z"/>
<path fill="none" stroke="#685d3c" stroke-width="3" d="M-544-151L-548-128 M-362-151L-365-128 M-157-151L-158-128 M49-151L50-128 M272-151L276-128 M471-151L478-128 M640-151L652-128"/>
</g>
</svg>
