<svg xmlns="http://www.w3.org/2000/svg" viewBox="-260 -310 520 342">
<title>Timber work shelter and stacked rough stone</title>
<path id="back-shadow" fill="#0b1922" d="M-214-232H195V4H-222Z"/>
<path id="leaning-roof" fill="#263541" d="M-249-228L-190-290L219-264L250-226L177-218L-188-205Z"/>
<path id="roof-light" fill="#4d5660" d="M-238-231L-190-290L219-264L231-249L-186-270Z"/>
<path id="beams" fill="#594835" d="M-216-227H-199V10H-216Z M179-229H195V6H179Z M-221-229H200V-211H-221Z M-209-211L-203-187L-149-140L-135-153Z M187-211L173-181L125-144L115-158Z"/>
<path id="lower-workbench" fill="#5e4e36" d="M-144-86H53V-69H-144Z M-131-69H-118V2H-131Z M23-69H37V3H23Z"/>
<path id="roughcut-stones" fill="#44515a" d="M79 1L79-57L143-63L159-5Z M106-62L113-111L184-108L184-58Z M143-5L164-56L219-48L236 5Z"/>
<path id="stone-top-planes" fill="#68747d" d="M79-57L96-71L143-63L127-49Z M113-111L129-121L184-108L164-98Z M164-56L177-68L219-48L205-41Z"/>
<path id="hanging-tools" fill="none" stroke="#77705a" stroke-width="6" d="M-56-207L-56-124 M-21-207L-18-151 M17-206L17-114"/>
<path id="toolheads" fill="#5c6970" d="M-75-130L-40-134L-33-122L-64-115Z M-25-154L-11-153L-4-124L-28-129Z M5-121L29-121L34-106L4-106Z"/>
<path id="lamp-frame" fill="#6b5033" d="M-167-192H-139V-138H-167Z"/>
<path id="lamp-glass" fill="#cea15a" d="M-160-182H-145V-149H-160Z"/>
<path id="base-slab" fill="#37444e" d="M-231 0H239L253 19L-252 26Z"/>
</svg>
