<svg xmlns="http://www.w3.org/2000/svg" viewBox="-890 -240 1570 650">
<title>Connected rear village stairs and timber gallery</title>
<desc>One continuous rear-plane route follows the three authored hamlet ledges.</desc>
<path id="upper-landing" fill="#3d3e33" d="M-790-143H-471V-127H-790Z"/>
<path id="upper-stair-stringer" fill="#4c4537" d="M-481-139L-343-2L-343 18L-487-117Z"/>
<path id="upper-stone-steps" fill="#4c5b65" d="M-484-136H-464V-119H-448V-101H-431V-82H-413V-64H-394V-47H-377V-29H-359V-12H-340V2H-365V-10H-382V-27H-400V-44H-418V-61H-436V-79H-453V-97H-471V-115H-487Z"/>
<path id="middle-gallery-deck" fill="#4c4738" d="M-353-6H20V8H-353Z"/>
<path id="lower-stair-stringer" fill="#4b4436" d="M8-4L167 111L171 134L4 12Z"/>
<path id="lower-stone-steps" fill="#4c5b65" d="M8-2H33V14H54V32H76V49H98V67H119V84H143V102H168V118H145V109H127V93H104V77H82V60H60V42H39V25H17V10H8Z"/>
<path id="lower-gallery-deck" fill="#484638" d="M159 108H608V126H159Z"/>
<path id="landing-posts" fill="#443c30" d="M-779-215H-765V-120H-779Z M-541-215H-528V-115H-541Z M-349-87H-337V19H-349Z M-37-85H-25V24H-37Z M180 31H193V145H180Z M402 30H416V146H402Z M590 30H604V139H590Z"/>
<path id="landing-hand-rails" fill="#66583e" d="M-783-209H-527V-197H-783Z M-352-81H-24V-69H-352Z M178 36H606V49H178Z"/>
<path id="stair-handrails" fill="#66583e" d="M-480-213L-341-78L-347-64L-489-201Z M12-78L189 39L182 51L5-66Z"/>
<path id="stair-vertical-members" fill="#493f30" d="M-480-214H-468V-119H-480Z M-421-150H-410V-56H-421Z M12-80H24V12H12Z M96-23H108V82H96Z"/>
<path id="brackets-under-gallery" fill="#34382f" d="M-306 5H-291V161H-306Z M-100 7H-86V232H-100Z M217 122H232V288H217Z M518 122H534V325H518Z M-296 32L-111 176L-101 162L-292 14Z M233 137L523 291L529 272L239 119Z"/>
<path id="edge-caps" fill="#77705a" d="M-790-145H-471V-140H-790Z M-355-8H21V-3H-355Z M158 107H610V112H158Z"/>
</svg>
