<svg xmlns="http://www.w3.org/2000/svg" viewBox="-200 -225 400 239">
<title>Small cavern market canopy</title>
<path id="rear-cloth-shadow" fill="#17242b" d="M-143-165H137V-6H-146Z"/>
<path id="canopy" fill="#4b4b3e" d="M-175-166L-100-207L111-195L187-158L136-151L74-159L19-151L-37-160L-99-151Z"/>
<path id="canopy-fold" fill="#66614c" d="M-163-168L-100-207L111-195L135-183L-94-187L-132-159Z"/>
<path id="canopy-bottom" fill="#282f2b" d="M-170-166L-99-154L-37-164L19-155L74-164L135-155L183-161L175-145L136-139L73-146L19-137L-35-146L-98-136L-168-149Z"/>
<path id="timber" fill="#594b35" d="M-154-168H-143V0H-154Z M139-169H151V2H139Z M-150-157H148V-146H-150Z"/>
<path id="counter-shadow" fill="#252f2e" d="M-111-70H109V0H-111Z"/>
<path id="counter-face" fill="#4a4838" d="M-118-67H112V-15H-118Z"/>
<path id="counter-top" fill="#766345" d="M-124-76H119V-63H-124Z"/>
<path id="wrapped-bales" fill="#736c50" d="M-91-76L-85-108L-44-113L-38-76Z M-27-76L-26-101L4-106L22-98L20-76Z"/>
<path id="clay-jar" fill="#59584b" d="M47-76L40-101L46-124H76L86-105L79-77Z"/>
<path id="pot-light" fill="#87816b" d="M47-118H74V-110H47Z"/>
<path id="bound-cord" fill="none" stroke="#393d32" stroke-width="4" d="M-70-111L-67-76 M-25-90H20"/>
<path id="small-lamp-frame" fill="#504734" d="M-130-146H-107V-110H-131Z"/>
<path id="small-lamp" fill="#c19b58" d="M-125-139H-112V-117H-125Z"/>
<path id="stone-foot" fill="#343f46" d="M-165-1H161L177 11L-172 13Z"/>
</svg>
