<svg xmlns="http://www.w3.org/2000/svg" viewBox="-75 -132 150 146"><title>동맹 궁수</title><g id="root" stroke-linecap="round" stroke-linejoin="round"></g><g id="rear-leg" stroke-linecap="round" stroke-linejoin="round"><path d="M-11.44 -56 L-0.88 -53.721 -1.76 -30.698 -3.52 -6.395 -10.56 -6.395 -10.56 -29.419Z" fill="#354138" stroke="none" stroke-width="0.54"/><path d="M-8.8 -33.256 L-3.52 -29.419 -5.28 -8.953 -8.8 -8.953Z" fill="#817D69" stroke="none" stroke-width="0.54"/></g><g id="rear-foot" stroke-linecap="round" stroke-linejoin="round"><path d="M-10.56 -8.953 L-3.52 -8.953 -0.88 -3.837 4.4 -1.279 4.4 1.279 -11.44 1.279Z" fill="#695640" stroke="none" stroke-width="0.54"/><path d="M-9.68 -5.116 L-2.64 -3.837" fill="none" stroke="#BAA36F" stroke-width="0.63"/></g><g id="front-leg" stroke-linecap="round" stroke-linejoin="round"><path d="M0.88 -56 L11.44 -53.721 10.56 -30.698 8.8 -6.395 1.76 -6.395 1.76 -29.419Z" fill="#5a5e48" stroke="none" stroke-width="0.54"/><path d="M3.52 -33.256 L8.8 -29.419 7.04 -8.953 3.52 -8.953Z" fill="#817D69" stroke="none" stroke-width="0.54"/></g><g id="front-foot" stroke-linecap="round" stroke-linejoin="round"><path d="M1.76 -8.953 L8.8 -8.953 11.44 -3.837 16.72 -1.279 16.72 1.279 0.88 1.279Z" fill="#695640" stroke="none" stroke-width="0.54"/><path d="M2.64 -5.116 L9.68 -3.837" fill="none" stroke="#BAA36F" stroke-width="0.63"/></g><g id="body" stroke-linecap="round" stroke-linejoin="round"><path d="M-7.04 -94 Q-13.2 -93 -14.96 -86 L-12.32 -63 -9.68 -53.721 11.44 -55 14.08 -71 12.32 -87 5.28 -94Z" fill="#5a5e48" stroke="#1A282A" stroke-width="0.63"/><path d="M-4.4 -93 L2.64 -86 -3.52 -73 -8.8 -68 -11.44 -84Z" fill="#868a6d" stroke="none" stroke-width="0.54"/><path d="M6.16 -92 L10.56 -88 7.92 -72 11.44 -56 1.76 -57 0 -77Z" fill="#354138" stroke="none" stroke-width="0.54"/><path d="M-6.16 -95 L0 -88 7.04 -95 9.68 -90 0 -77 -9.68 -91Z" fill="#AAA590" stroke="none" stroke-width="0.54"/><path d="M-12.32 -59 L12.32 -60 12.32 -55 -11.44 -53.721Z" fill="#695640" stroke="none" stroke-width="0.54"/><path d="M0 -59 L4.4 -59 4.4 -53.721 0 -53.721Z" fill="#BAA36F" stroke="none" stroke-width="0.54"/><path d="M-9.68 -72 L-6.16 -64 M8.8 -82 L6.16 -67" fill="none" stroke="#868a6d" stroke-width="0.5850000000000001"/><path d="M-13.2 -89 L-20.24 -55 -25.52 -58 -19.36 -92Z" fill="#695640" stroke="none" stroke-width="0.54"/><path d="M-18.48 -89 L-23.76 -115" fill="none" stroke="#AA8D61" stroke-width="0.7200000000000001"/><path d="M-23.76 -115 L-26.4 -118" fill="none" stroke="#AAA590" stroke-width="1.35"/><path d="M-16.72 -89 L-22 -115" fill="none" stroke="#AA8D61" stroke-width="0.7200000000000001"/><path d="M-22 -115 L-24.64 -118" fill="none" stroke="#AAA590" stroke-width="1.35"/><path d="M-14.96 -89 L-20.24 -115" fill="none" stroke="#AA8D61" stroke-width="0.7200000000000001"/><path d="M-20.24 -115 L-22.88 -118" fill="none" stroke="#AAA590" stroke-width="1.35"/></g><g id="rear-sleeve" stroke-linecap="round" stroke-linejoin="round"><path d="M-7.92 -91 Q-16.72 -91 -21.12 -78 L-24.64 -63 -19.36 -55 -10.56 -60 -13.2 -71 -4.4 -79Z" fill="#354138" stroke="none" stroke-width="0.54"/><path d="M-17.6 -79 L-20.24 -65 -15.84 -62" fill="none" stroke="#868a6d" stroke-width="0.63"/></g><g id="rear-hand" stroke-linecap="round" stroke-linejoin="round"><path d="M-21.12 -61 L-14.96 -59 -14.08 -51.163 -15.84 -47.326 -19.36 -48.605 -22 -53.721Z" fill="#B7987B" stroke="none" stroke-width="0.54"/><path d="M-20.24 -56 L-16.72 -53.721" fill="none" stroke="#8D7159" stroke-width="0.5850000000000001"/></g><g id="hem" stroke-linecap="round" stroke-linejoin="round"><path d="M-12.32 -64 L13.2 -62 18.48 -34.535 7.04 -39.651 2.64 -53.721 -2.64 -34.535 -20.24 -26.86 -15.84 -49.884Z" fill="#5a5e48" stroke="#1A282A" stroke-width="0.63"/><path d="M-8.8 -59 L-0.88 -55 -8.8 -35.814 -16.72 -31.977Z" fill="#868a6d" stroke="none" stroke-width="0.54"/><path d="M-12.32 -49.884 L-15.84 -35.814 M10.56 -53.721 L14.08 -39.651" fill="none" stroke="#354138" stroke-width="0.7200000000000001"/></g><g id="neck" stroke-linecap="round" stroke-linejoin="round"><path d="M-2.182 -96.4 L3.274 -96.1 3.819 -92 0.546 -86 -3.274 -94Z" fill="#B7987B" stroke="none" stroke-width="0.54"/><path d="M-1.637 -95.5 L3.274 -95.5 2.728 -92 0.546 -89Z" fill="#8D7159" stroke="none" stroke-width="0.54"/></g><g id="head" stroke-linecap="round" stroke-linejoin="round"><path d="M-4.787 -106.56 Q0.598 -111.32 5.386 -106.56 L6.582 -101.12 4.787 -96.36 Q2.992 -92.96 0.598 -93.64 L-3.59 -97.04 -5.984 -101.8Z" fill="#B7987B" stroke="none" stroke-width="0.432"/><path d="M-4.787 -104.52 L-2.992 -103.16 -2.394 -97.72 0.598 -94.32 -3.59 -97.04 -5.386 -101.8Z" fill="#8D7159" stroke="none" stroke-width="0.432"/><path d="M-5.625 -101.12 C-5.625 -104.383 -2.753 -104.383 -2.753 -101.12 C-2.753 -97.857 -5.625 -97.857 -5.625 -101.12Z" fill="#B7987B" stroke="none" stroke-width="0.432"/><path d="M-4.787 -102.48 L-3.59 -101.12 -4.189 -99.76" fill="none" stroke="#8D7159" stroke-width="0.432"/><path d="M-1.795 -103.84 L1.197 -103.16 1.197 -102.48 -1.795 -103.16Z M2.992 -103.16 L5.386 -103.16 5.386 -102.48 2.992 -102.48Z" fill="#292C29" stroke="none" stroke-width="0.432"/><path d="M-1.795 -101.8 L0.598 -101.46 0 -100.44 -1.197 -100.78Z M2.992 -101.46 L4.787 -101.46 4.189 -100.44 2.992 -100.44Z" fill="#C5B69A" stroke="none" stroke-width="0.432"/><path d="M-1.795 -101.8 L0.598 -101.46 M2.992 -101.46 L4.787 -101.46" fill="none" stroke="#463C31" stroke-width="0.468"/><path d="M-0.299 -101.46 L-0.299 -100.78 M3.59 -101.392 L3.59 -100.576" fill="none" stroke="#463C31" stroke-width="0.7200000000000001"/><path d="M2.394 -101.12 L2.992 -99.08 1.795 -98.4" fill="none" stroke="#8D7159" stroke-width="0.468"/><path d="M0 -96.7 Q1.197 -97.04 2.394 -96.7" fill="none" stroke="#463C31" stroke-width="0.3960000000000001"/><path d="M-5.984 -102.48 L-6.582 -107.92 Q-3.59 -113.36 2.394 -111.32 L5.984 -107.92 7.181 -105.2 4.787 -104.52 2.992 -107.24 0.598 -105.88 -1.795 -107.24 -3.59 -103.16 -3.59 -99.08 -5.386 -99.76Z" fill="#292C29" stroke="none" stroke-width="0.432"/><path d="M-3.59 -110.64 Q-5.984 -115.4 -1.795 -115.4 L0.598 -114.04 0 -110.64Z" fill="#292C29" stroke="none" stroke-width="0.432"/><path d="M-5.386 -106.56 L4.787 -106.56" fill="none" stroke="#817D69" stroke-width="1.008"/></g><g id="front-sleeve" stroke-linecap="round" stroke-linejoin="round"><path d="M8.8 -91 Q15.84 -90 17.6 -82 L22.88 -71 22 -59 14.96 -58 14.08 -69 7.92 -78Z" fill="#5a5e48" stroke="#1A282A" stroke-width="0.5850000000000001"/><path d="M16.72 -74 L22 -70 21.12 -61 16.72 -61Z" fill="#AAA590" stroke="none" stroke-width="0.54"/><path d="M13.2 -86 L15.84 -76 14.08 -72" fill="none" stroke="#868a6d" stroke-width="0.675"/></g><g id="front-hand" stroke-linecap="round" stroke-linejoin="round"><path d="M16.72 -61 L22 -61 23.76 -57 22 -49.884 17.6 -49.884 15.84 -53.721Z" fill="#B7987B" stroke="none" stroke-width="0.54"/><path d="M17.6 -57 L21.12 -55 20.24 -51.163" fill="none" stroke="#8D7159" stroke-width="0.5850000000000001"/></g><g id="tool" stroke-linecap="round" stroke-linejoin="round"><path d="M22.88 -83 Q38.72 -64 28.16 -31.977 L24.64 -24.302 26.4 -37.093 Q33.44 -60 21.12 -80Z" fill="#AA8D61" stroke="none" stroke-width="0.54"/><path d="M22 -82 L20.24 -55 25.52 -26.86" fill="none" stroke="#AAA590" stroke-width="0.49500000000000005"/><path d="M19.36 -55 L38.72 -55" fill="none" stroke="#AA8D61" stroke-width="0.7200000000000001"/><path d="M40.48 -55 L36.08 -57 36.08 -52.442Z" fill="#BECDC1" stroke="none" stroke-width="0.54"/></g><g id="goreum" stroke-linecap="round" stroke-linejoin="round"><path d="M-0.88 -80 L4.4 -79 7.04 -66 3.52 -67 0.88 -74 -2.64 -64 -5.28 -66Z" fill="#817D69" stroke="none" stroke-width="0.54"/></g></svg>